<?xml version="1.0" standalone="no"?>
<!DOCTYPE svg PUBLIC "-//W3C//DTD SVG 1.1//EN" "http://www.w3.org/Graphics/SVG/1.1/DTD/svg11.dtd" >
<svg xmlns="http://www.w3.org/2000/svg">
<metadata>
This is a custom SVG webfont generated by Font Squirrel.
Copyright   : Copyleft  by DNK
</metadata>
<defs>
<font id="ChicagoPlain" horiz-adv-x="568" >
<font-face units-per-em="1000" ascent="800" descent="-200" />
<missing-glyph horiz-adv-x="500" />
<glyph unicode=" "  horiz-adv-x="500" />
<glyph unicode="&#x09;" horiz-adv-x="500" />
<glyph unicode="&#xa0;" horiz-adv-x="500" />
<glyph unicode="!" horiz-adv-x="426" d="M323 243h-161v484h161v-484zM323 0h-161v162h161v-162z" />
<glyph unicode="&#x22;" horiz-adv-x="496" d="M243 486h-81v241h81v-241zM405 486h-82v241h82v-241z" />
<glyph unicode="#" horiz-adv-x="709" d="M284 565l39 162h82l-41 -162h163l38 162h83l-42 -162h121v-79h-141l-41 -163h103v-80h-121l-41 -163h-81l40 163h-161l-41 -163h-81l40 163h-122v80h141l42 163h-101v79h122zM506 486h-163l-40 -163h161z" />
<glyph unicode="$" horiz-adv-x="496" d="M323 727q79 0 121 -41t42 -121h-81q-9 83 -82 83v-224l115 -107q48 -50 48 -115v-40q0 -144 -163 -162v-80h-80v80q-77 0 -122 42q-41 43 -41 120h82v-14q0 -54 81 -68v223l-114 109q-49 43 -49 115v38q0 144 163 162v81h80v-81zM374 157q0 30 -51 86v-163q51 23 51 77z M243 486v162q-50 -23 -50 -77q0 -17 12 -40l13 -18z" />
<glyph unicode="%" horiz-adv-x="781" d="M129 453q-49 47 -49 112q0 63 49 116q52 46 114 46q65 0 113.5 -47t48.5 -115q0 -64 -46 -112t-116 -48q-66 0 -114 48zM405 648v79h281l-402 -727h-82l363 648h-160zM532 48q-46 52 -46 114q0 67 48.5 114t113.5 47t112.5 -47t47.5 -114t-47 -114.5t-113 -47.5 q-62 0 -116 48zM185 624q-23 -25 -23 -59q0 -31 23 -57q25 -22 58 -22q35 0 57 22q23 26 23 57q0 33 -23 59q-24 21 -57 24q-28 0 -58 -24zM589 218q-11 -11 -17.5 -25t-6.5 -31q0 -28 24 -58l27 -18q15 -6 32 -6q27 0 57 24q22 25 22 58q0 30 -25 55.5t-54 25.5 q-33 0 -59 -25z" />
<glyph unicode="&#x26;" horiz-adv-x="709" d="M648 405v81h79v-81q0 -65 -45 -113.5t-109 -48.5h-8v-81q0 -57 -46 -107q-46 -55 -114 -55h-162q-66 0 -114.5 54.5t-48.5 107.5v81q0 50 41 106t122 56q-163 15 -163 160q0 63 49 116q52 46 114 46h162q66 0 113 -45.5t47 -116.5v-79h-160v79q0 30 -24 59q-24 21 -58 24 q-30 0 -57 -24q-23 -23 -23 -59v-38q0 -72 80 -82v-81q-80 -9 -80 -80v-122q0 -39 23 -62q28 -20 57 -20q31 0 58 20q24 21 24 62v161h160q31 0 57 24t26 58z" />
<glyph unicode="'" horiz-adv-x="213" d="M162 486h-82v241h82v-241z" />
<glyph unicode="(" horiz-adv-x="355" d="M323 0v-80h-6q-90 0 -163.5 73t-73.5 201v340q0 62 18 111t56 88q74 75 163 75h6v-81q-39 0 -59.5 -20.5t-20.5 -58.5v-568q0 -65 80 -80z" />
<glyph unicode=")" horiz-adv-x="355" d="M80 727v81h8q89 0 162 -73t73 -201v-340q0 -126 -72.5 -200t-162.5 -74h-8v80q82 9 82 80v568q0 72 -82 79z" />
<glyph unicode="*" horiz-adv-x="496" d="M116 628l127 -73v146h80v-146l126 73l41 -69l-126 -73l126 -73l-41 -71l-126 73v-146h-80v146l-127 -73l-40 71l126 73l-126 73z" />
<glyph unicode="+" horiz-adv-x="496" d="M243 243h-163v80h163v163h80v-163h163v-80h-163v-163h-80v163z" />
<glyph unicode="," horiz-adv-x="283" d="M80 0v162h163v-162q0 -143 -163 -162v82q82 0 82 80h-82z" />
<glyph unicode="-" horiz-adv-x="496" d="M486 243h-406v80h406v-80z" />
<glyph unicode="." horiz-adv-x="283" d="M243 0h-163v162h163v-162z" />
<glyph unicode="/" horiz-adv-x="496" d="M162 0h-82l325 808h81z" />
<glyph unicode="0" d="M129 681q52 46 114 46h162q66 0 113 -45.5t47 -116.5v-403q0 -68 -47 -114q-45 -48 -113 -48h-162q-60 0 -111.5 48t-51.5 114v403q0 63 49 116zM405 437l-160 -289q6 -34 26 -51t52 -17q28 0 58 24q24 26 24 58v275zM243 291l161 289q-18 68 -81 68q-30 0 -57 -24 q-23 -23 -23 -59v-274z" />
<glyph unicode="1" d="M405 0h-162v565h-81v83l161 79h82v-727z" />
<glyph unicode="2" d="M243 648q-81 0 -81 -83h-82q20 162 163 162h162q66 0 113 -45.5t47 -116.5v-38q0 -43 -37 -96q-8 -13 -20.5 -28t-27.5 -30.5t-30.5 -30.5t-39.5 -34l-11 -9q-156 -132 -156 -210v-9h322v-80h-485v80q0 85 158 219l11 9q156 135 156 219v38q0 27 -24 59q-26 21 -58 24 h-80z" />
<glyph unicode="3" d="M80 648v79h485v-79l-242 -162h82q62 0 116 -55q44 -50 44 -108v-161q0 -66 -49 -114t-111 -48h-162q-136 0 -163 162h82q0 -82 81 -82h80q26 0 58 24q24 26 24 58v161q0 21 -20 51q-6 11 -14 16q-6 6 -16 9q-15 6 -32 6h-161v81l243 162h-325z" />
<glyph unicode="4" d="M486 0h-163v243h-323v80l323 404h163v-404h79v-80h-79v-243zM80 323h243v304z" />
<glyph unicode="5" d="M80 405v322h485v-79h-322v-162h162q63 0 111.5 -47.5t48.5 -115.5v-161q0 -66 -49 -114t-111 -48h-162q-136 0 -163 162h82q0 -82 81 -82h80q26 0 58 24q24 26 24 58v161q0 29 -24 58q-24 21 -58 24h-243z" />
<glyph unicode="6" d="M243 486v-81q0 35 24.5 58t55.5 23h82q63 0 111.5 -47.5t48.5 -115.5v-161q0 -68 -47 -114q-45 -48 -113 -48h-162q-60 0 -111.5 48t-51.5 114v283q0 109 84 195.5t200 86.5h122v-79h-81q-61 0 -115 -48q-47 -52 -47 -114zM381 104q24 26 24 58v161q0 29 -24 58 q-24 21 -58 24q-30 0 -57 -24q-23 -23 -23 -58v-161q0 -34 23 -58q27 -24 57 -24q28 0 58 24z" />
<glyph unicode="7" d="M80 648v79h485v-162l-38 -79l-41 -81q-81 -168 -81 -243v-162h-162v162q0 86 80 243l82 160v83h-325z" />
<glyph unicode="8" d="M527 414q-32 -32 -122 -50q76 0 122 -52q38 -55 38 -110v-40q0 -57 -46 -107q-46 -55 -114 -55h-162q-66 0 -114.5 54.5t-48.5 107.5v40q0 51 40.5 106.5t122.5 55.5q-85 9 -124 50t-39 113v38q0 63 49 116q52 46 114 46h162q66 0 113 -45.5t47 -116.5v-38 q0 -74 -38 -113zM381 428q24 26 24 58v79q0 27 -24 59q-24 21 -58 24q-30 0 -57 -24q-23 -23 -23 -59v-79q0 -34 23 -58q26 -23 57 -23q34 0 58 23zM381 104q24 26 24 58v81q0 80 -82 80q-80 0 -80 -80v-81q0 -34 23 -58q26 -21 57 -24q26 0 58 24z" />
<glyph unicode="9" d="M405 243v80q-9 -80 -82 -80h-80q-64 0 -113.5 48.5t-49.5 113.5v160q0 63 49 116q52 46 114 46h162q66 0 113 -45.5t47 -116.5v-281q0 -118 -84.5 -201t-196.5 -83h-122v80h81q63 0 112.5 50.5t49.5 112.5zM266 624q-23 -26 -23 -59v-160q0 -34 23 -58q27 -24 57 -24 q29 0 58 24q24 26 24 58v160q0 27 -24 59q-24 21 -58 24q-24 0 -57 -24z" />
<glyph unicode=":" horiz-adv-x="283" d="M243 0h-163v162h163v-162zM243 405h-163v160h163v-160z" />
<glyph unicode=";" horiz-adv-x="283" d="M80 0v162h163v-162q0 -143 -163 -162v82q82 0 82 80h-82zM243 405h-163v160h163v-160z" />
<glyph unicode="&#x3c;" horiz-adv-x="426" d="M340 80l-323 284l323 284h121l-322 -284l322 -284h-121z" />
<glyph unicode="=" d="M565 162h-485v81h485v-81zM565 323h-485v82h485v-82z" />
<glyph unicode="&#x3e;" horiz-adv-x="426" d="M146 648l321 -284l-321 -284h-121l322 284l-322 284h121z" />
<glyph unicode="?" d="M405 0h-162v162h162v-162zM405 243h-162v80q0 100 104 165l14 7q44 24 44 70q0 27 -24 59q-27 24 -58 24h-80q-81 0 -81 -83h-82q20 162 163 162h162q66 0 113 -45.5t47 -116.5q0 -102 -92 -145l-12 -5q-42 -21 -51 -39l-5 -32v-21v-80z" />
<glyph unicode="@" horiz-adv-x="811" d="M648 80v-80h-284q-113 0 -200 84q-41 41 -62.5 91t-21.5 109v161q0 109 84 195.5t200 86.5h163q115 0 198 -81.5t83 -200.5v-202q0 -34 -23 -58q-26 -23 -58 -23h-162q-65 0 -79 81q-6 -35 -28 -62q-25 -19 -68 -19q-52 0 -99.5 47t-47.5 114v82q0 66 47 113t115 47h160 v-281q0 -41 41 -41h80q41 0 41 41v161q0 82 -59 142.5t-141 60.5h-163q-74 0 -143 -60q-59 -57 -59 -143v-161q0 -84 59 -142q57 -62 143 -62h284zM486 323v163h-81q-33 0 -58 -25q-21 -24 -24 -56v-82q0 -30 24 -57q23 -23 58 -23q32 0 58 23q23 26 23 57z" />
<glyph unicode="A" d="M243 0h-163v565q0 63 49 116q52 46 114 46h162q66 0 113 -45.5t47 -116.5v-565h-160v323h-162v-323zM243 565v-160h162v160q0 27 -24 59q-24 21 -58 24q-30 0 -57 -24q-23 -23 -23 -59z" />
<glyph unicode="B" d="M405 0h-325v727h325q66 0 113 -45.5t47 -116.5v-38q0 -72 -35.5 -108.5t-124.5 -54.5q74 0 122 -48q38 -49 38 -114v-40q0 -66 -49 -114t-111 -48zM243 648v-243h80q34 0 58 23q24 26 24 58v79q0 27 -24 59q-24 21 -58 24h-80zM243 323v-243h80q26 0 58 24q24 26 24 58 v81q0 80 -82 80h-80z" />
<glyph unicode="C" d="M486 162h79q0 -162 -160 -162h-162q-60 0 -111.5 48t-51.5 114v403q0 66 49 114q45 48 114 48h162q160 0 160 -162h-79q-9 83 -81 83h-82q-30 0 -57 -24q-23 -23 -23 -59v-403q0 -34 23 -58q27 -24 57 -24h82q69 0 81 82z" />
<glyph unicode="D" d="M405 0h-325v727h325q66 0 113 -45.5t47 -116.5v-403q0 -68 -47 -114q-45 -48 -113 -48zM243 648v-568h80q28 0 58 24q24 26 24 58v403q0 27 -24 59q-24 21 -58 24h-80z" />
<glyph unicode="E" horiz-adv-x="496" d="M486 0h-406v727h406v-79h-243v-243h162v-82h-162v-243h243v-80z" />
<glyph unicode="F" horiz-adv-x="496" d="M243 0h-163v727h406v-79h-243v-243h162v-82h-162v-323z" />
<glyph unicode="G" d="M323 323v82h242v-243q0 -78 -51 -122q-25 -20 -50.5 -30t-58.5 -10h-162q-60 0 -111.5 48t-51.5 114v403q0 66 49 114q45 48 114 48h162q160 0 160 -162h-79q-9 83 -81 83h-82q-30 0 -57 -24q-23 -23 -23 -59v-403q0 -34 23 -58q26 -21 57 -24q36 0 57 21t25 61v161h-82z " />
<glyph unicode="H" d="M243 0h-163v727h163v-322h162v322h160v-727h-160v323h-162v-323z" />
<glyph unicode="I" horiz-adv-x="240" d="M236 0h-161v727h161v-727z" />
<glyph unicode="J" horiz-adv-x="555" d="M389 727h163v-565q0 -80 -42 -121t-121 -41h-161q-81 0 -121 41q-41 38 -41 121v161h162v-161q0 -34 23 -58q27 -24 58 -24q30 0 57 24q8 10 16 25q7 18 7 33v565z" />
<glyph unicode="K" horiz-adv-x="638" d="M243 0h-163v727h163v-296l261 296h144l-325 -363l325 -364h-162l-243 284v-284z" />
<glyph unicode="L" horiz-adv-x="496" d="M486 0h-406v727h163v-647h243v-80z" />
<glyph unicode="M" horiz-adv-x="893" d="M162 0h-82v727h39l344 -344l345 344h82v-727h-163v445l-282 -283l-283 283v-445z" />
<glyph unicode="N" horiz-adv-x="651" d="M162 0h-82v727h39l446 -404v404h83v-727h-38l-448 405v-405z" />
<glyph unicode="O" d="M129 681q52 46 114 46h162q66 0 113 -45.5t47 -116.5v-403q0 -68 -47 -114q-45 -48 -113 -48h-162q-60 0 -111.5 48t-51.5 114v403q0 63 49 116zM266 624q-23 -23 -23 -59v-403q0 -34 23 -58q27 -24 57 -24q28 0 58 24q24 26 24 58v403q0 27 -24 59q-24 21 -58 24 q-30 0 -57 -24z" />
<glyph unicode="P" d="M243 0h-163v727h325q66 0 113 -45.5t47 -116.5v-79q0 -68 -47 -114q-21 -24 -48.5 -36.5t-64.5 -12.5h-162v-323zM243 648v-243h80q34 0 58 23q24 26 24 58v79q0 27 -24 59q-24 21 -58 24h-80z" />
<glyph unicode="Q" d="M445 -80q-69 0 -81 80h-121q-60 0 -111.5 48t-51.5 114v403q0 63 49 116q52 46 114 46h162q66 0 113 -45.5t47 -116.5v-403q0 -146 -160 -162h160v-80h-120zM266 624q-23 -23 -23 -59v-403q0 -34 23 -58q27 -24 57 -24q28 0 58 24q24 26 24 58v403q0 27 -24 59 q-24 21 -58 24q-30 0 -57 -24z" />
<glyph unicode="R" d="M243 0h-163v727h325q66 0 113 -45.5t47 -116.5v-43q0 -55 -36.5 -105t-123.5 -50h81q33 0 56 -23t23 -58v-286h-160v243q0 30 -23.5 55t-58.5 25h-80v-323zM243 648v-243h80q34 0 58 23q24 26 24 58v79q0 27 -24 59q-24 21 -58 24h-80z" />
<glyph unicode="S" horiz-adv-x="496" d="M323 727q79 0 121 -41t42 -121h-81q-11 83 -78 83q-39 0 -63 -21q-21 -21 -21 -62q0 -31 23 -57l172 -191q48 -57 48 -115v-40q0 -66 -48 -114t-115 -48h-80q-80 0 -121.5 39t-41.5 123h82v-14q0 -29 24 -50q24 -18 57 -18q41 0 61 23q19 19 19 59q0 34 -23 58l-171 192 q-49 52 -49 115v38q0 63 49 116q52 46 114 46h80z" />
<glyph unicode="T" horiz-adv-x="536" d="M372 0h-161v648h-162v79h486v-79h-163v-648z" />
<glyph unicode="U" d="M405 162v565h160v-565q0 -68 -47 -114q-45 -48 -113 -48h-162q-60 0 -111.5 48t-51.5 114v565h163v-565q0 -34 23 -58q27 -24 57 -24q28 0 58 24q24 26 24 58z" />
<glyph unicode="V" d="M405 162v565h160v-451q0 -115 -80 -195.5t-195 -80.5h-210v727h163v-647h80q28 0 58 24q24 26 24 58z" />
<glyph unicode="W" horiz-adv-x="893" d="M80 0v727h163v-647h80q28 0 58 24q24 26 24 58v565h160v-647h83q27 0 57 24q22 25 22 58v565h163v-451q0 -111 -80 -193.5t-197 -82.5h-208v25q-50 -25 -115 -25h-210z" />
<glyph unicode="X" d="M243 0h-163v202q0 141 163 162q-163 18 -163 163v200h163v-241q0 -34 23 -58q26 -23 57 -23q34 0 58 23q24 26 24 58v241h160v-200q0 -144 -160 -163q160 -21 160 -162v-202h-160v243q0 30 -23.5 55t-58.5 25q-31 0 -57 -23q-23 -23 -23 -57v-243z" />
<glyph unicode="Y" d="M405 0h-162v323q-163 18 -163 163v241h163v-241q0 -34 23 -58q26 -23 57 -23q34 0 58 23q24 26 24 58v241h160v-241q0 -141 -160 -163v-323z" />
<glyph unicode="Z" d="M80 648v79h485v-79l-322 -568h322v-80h-485v80l325 568h-325z" />
<glyph unicode="[" horiz-adv-x="355" d="M80 -80v888h243v-81h-80v-727h80v-80h-243z" />
<glyph unicode="\" horiz-adv-x="496" d="M162 808l324 -808h-81l-325 808h82z" />
<glyph unicode="]" horiz-adv-x="355" d="M323 808v-888h-243v80h82v727h-82v81h243z" />
<glyph unicode="^" d="M80 486l243 241l242 -241h-79l-163 162l-161 -162h-82z" />
<glyph unicode="_" horiz-adv-x="648" d="M648 -80h-648v80h648v-80z" />
<glyph unicode="`" horiz-adv-x="283" d="M195 727v-162h-81q0 -79 81 -79v-81q-162 15 -162 160v162h162z" />
<glyph unicode="a" d="M405 323v82q0 30 -24.5 55.5t-57.5 25.5h-80q-69 0 -81 -81h-82q18 160 163 160h162q66 0 113 -45.5t47 -114.5v-405h-160v80q-9 -80 -82 -80h-80q-60 0 -111.5 48t-51.5 114q0 62 48.5 111.5t114.5 49.5h162zM405 243h-82q-31 0 -57 -23q-9 -10 -16 -26t-7 -32 q0 -34 23 -58q27 -24 57 -24q28 0 58 24q24 26 24 58v81z" />
<glyph unicode="b" d="M405 0h-325v727h163v-241q0 14 6 30.5t19 28.5q20 20 55 20h82q66 0 113 -45.5t47 -114.5v-243q0 -68 -47 -114q-45 -48 -113 -48zM243 405v-325h80q28 0 58 24q24 26 24 58v243q0 30 -24.5 55.5t-57.5 25.5q-27 0 -56 -24q-24 -24 -24 -57z" />
<glyph unicode="c" horiz-adv-x="491" d="M323 565q150 0 163 -160h-81q-9 81 -82 81q-27 0 -56 -24q-24 -24 -24 -57v-243q0 -34 23 -58q27 -24 57 -24q72 0 82 82h81q0 -78 -43 -120t-120 -42h-80q-60 0 -111.5 48t-51.5 114v243q0 63 48.5 111.5t114.5 48.5h80z" />
<glyph unicode="d" d="M565 727v-727h-160v80q-9 -80 -82 -80h-80q-60 0 -111.5 48t-51.5 114v243q0 63 48.5 111.5t114.5 48.5h162v162h160zM405 162v324h-82q-27 0 -56 -24q-24 -24 -24 -57v-243q0 -34 23 -58q27 -24 57 -24q28 0 58 24q24 26 24 58z" />
<glyph unicode="e" d="M565 405v-162h-322v-81q0 -34 23 -58q27 -24 57 -24h82q81 0 81 82h79q-17 -162 -160 -162h-162q-60 0 -111.5 48t-51.5 114v243q0 63 48.5 111.5t114.5 48.5h162q66 0 113 -45.5t47 -114.5zM243 405v-82h162v82q0 30 -24.5 55.5t-57.5 25.5q-27 0 -56 -24 q-24 -24 -24 -57z" />
<glyph unicode="f" horiz-adv-x="483" d="M323 0h-161v486h-82v79h82v8q0 59 45 109q47 45 110 45h169v-79h-89q-27 0 -53 -23q-21 -24 -21 -52v-8h82v-79h-82v-486z" />
<glyph unicode="g" d="M243 565h322v-645q0 -66 -48.5 -114.5t-111.5 -48.5h-162q-141 0 -163 163h82q0 -82 81 -82h80q32 0 58 23q24 24 24 59v160q-9 -80 -82 -80h-80q-60 0 -111.5 48t-51.5 114v243q0 63 48.5 111.5t114.5 48.5zM405 162v324h-82q-27 0 -56 -24q-24 -24 -24 -57v-243 q0 -34 23 -58q27 -24 57 -24q28 0 58 24q24 26 24 58z" />
<glyph unicode="h" d="M243 0h-163v727h163v-241q0 14 6 30.5t19 28.5q20 20 55 20h82q66 0 113 -45.5t47 -114.5v-405h-160v405q0 30 -24.5 55.5t-57.5 25.5q-27 0 -56 -24q-24 -24 -24 -57v-405z" />
<glyph unicode="i" horiz-adv-x="245" d="M243 648h-163v79h163v-79zM243 0h-163v565h163v-565z" />
<glyph unicode="j" horiz-adv-x="478" d="M471 648h-162v79h162v-79zM309 0v565h162v-565q0 -62 -48.5 -112t-113.5 -50h-81q-144 0 -162 162h80q0 -36 21 -58t61 -22q33 0 57 24t24 56z" />
<glyph unicode="k" horiz-adv-x="625" d="M243 0h-163v727h163v-363l243 201h162l-340 -281l340 -284h-162l-243 202v-202z" />
<glyph unicode="l" horiz-adv-x="245" d="M243 0h-163v727h163v-727z" />
<glyph unicode="m" horiz-adv-x="896" d="M565 405v-405h-160v405q0 30 -24.5 55.5t-57.5 25.5q-27 0 -56 -24q-24 -24 -24 -57v-405h-163v565h163v-79q0 14 6 30.5t19 28.5q20 20 55 20h82q77 0 122 -57q15 30 46 43.5t75 13.5h79q68 0 114 -47q49 -46 49 -113v-405h-163v405q0 30 -25 55.5t-54 25.5 q-33 0 -59 -25q-21 -24 -24 -56z" />
<glyph unicode="n" d="M243 0h-163v565h163v-79q0 14 6 30.5t19 28.5q20 20 55 20h82q66 0 113 -45.5t47 -114.5v-405h-160v405q0 30 -24.5 55.5t-57.5 25.5q-27 0 -56 -24q-24 -24 -24 -57v-405z" />
<glyph unicode="o" d="M129 518q47 47 114 47h162q66 0 113 -45.5t47 -114.5v-243q0 -68 -47 -114q-45 -48 -113 -48h-162q-60 0 -111.5 48t-51.5 114v243q0 63 49 113zM266 461q-23 -23 -23 -56v-243q0 -34 23 -58q27 -24 57 -24q28 0 58 24q24 26 24 58v243q0 30 -24.5 55.5t-57.5 25.5 q-31 0 -57 -25z" />
<glyph unicode="p" d="M80 -162v727h163v-79q0 36 18.5 57.5t61.5 21.5h82q66 0 113 -45.5t47 -114.5v-243q0 -68 -47 -114q-45 -48 -113 -48h-162v-162h-163zM243 405v-325h80q26 0 58 24q24 26 24 58v243q0 27 -24 56q-18 21 -58 25q-27 0 -56 -24q-24 -24 -24 -57z" />
<glyph unicode="q" d="M243 565h322v-727h-160v242q-9 -80 -82 -80h-80q-60 0 -111.5 48t-51.5 114v243q0 64 47 112t116 48zM405 162v324h-82q-31 0 -57 -23q-23 -26 -23 -58v-243q0 -34 23 -58q27 -24 57 -24q28 0 58 24q24 26 24 58z" />
<glyph unicode="r" horiz-adv-x="484" d="M243 323v-323h-163v565h163v-160q9 81 50 122q18 18 47 28q13 4 31 7t34 3h81v-160h-163q-30 0 -57 -24q-23 -23 -23 -58z" />
<glyph unicode="s" horiz-adv-x="492" d="M323 565q150 0 163 -160h-81q-11 81 -78 81q-39 0 -64 -19q-20 -15 -20 -49q0 -29 117 -98q92 -48 111 -85q15 -33 15 -73q0 -66 -49 -114t-114 -48h-80q-163 0 -163 162h82q9 -82 76 -82q36 0 65 18q10 8 15.5 20t5.5 30q0 33 -118 97q-92 54 -110 86l-12 34l-4 39 q0 62 48.5 111.5t114.5 49.5h80z" />
<glyph unicode="t" horiz-adv-x="412" d="M162 565v162h161v-162h82v-79h-82v-324q0 -39 26 -62l26 -14l22 -6h8v-80h-82q-60 0 -113 48q-48 50 -48 114v324h-82v79h82z" />
<glyph unicode="u" d="M405 565h160v-565h-160v80q-9 -80 -82 -80h-80q-60 0 -111.5 48t-51.5 114v403h163v-403q0 -34 23 -58q27 -24 57 -24q28 0 58 24q24 26 24 58v403z" />
<glyph unicode="v" d="M405 162v403h160v-289q0 -115 -80 -195.5t-195 -80.5h-210v565h163v-485h80q28 0 58 24q24 26 24 58z" />
<glyph unicode="w" horiz-adv-x="893" d="M80 0v565h163v-485h80q28 0 58 24q24 26 24 58v403h160v-485h83q27 0 57 24q22 25 22 58v403h163v-289q0 -111 -80 -193.5t-197 -82.5h-208v25q-50 -25 -115 -25h-210z" />
<glyph unicode="x" d="M243 0h-163v121q0 68 39 108t124 55q-77 9 -122 48q-41 44 -41 113v120h163v-160q0 -34 23 -58q26 -21 57 -24q29 0 55.5 24t26.5 58v160h160v-120q0 -72 -38 -113q-42 -39 -122 -48q77 -12 122 -51q38 -41 38 -112v-121h-160v162q0 30 -24.5 55.5t-57.5 25.5 q-31 0 -55.5 -23t-24.5 -58v-162z" />
<glyph unicode="y" d="M80 -80h82q0 -82 81 -82h80q32 0 58 23q24 24 24 59v160q-9 -80 -82 -80h-80q-60 0 -111.5 48t-51.5 114v403h163v-403q0 -34 23 -58q27 -24 57 -24q28 0 58 24q24 26 24 58v403h160v-645q0 -66 -48.5 -114.5t-111.5 -48.5h-162q-141 0 -163 163z" />
<glyph unicode="z" d="M80 486v79h485v-79l-322 -406h322v-80h-485v80l325 406h-325z" />
<glyph unicode="{" horiz-adv-x="334" d="M89 323h-9v82h9q73 0 73 81v162q0 68 39 108t122 52v-81q-80 0 -80 -79v-162q0 -72 -56 -122q56 -48 56 -121v-163q0 -40 19.5 -60t60.5 -20v-80q-161 15 -161 160v163q0 80 -73 80z" />
<glyph unicode="|" horiz-adv-x="248" d="M162 -80v888h81v-888h-81z" />
<glyph unicode="}" horiz-adv-x="332" d="M317 405h6v-82h-6q-74 0 -74 -80v-163q0 -141 -163 -160v80q82 0 82 80v163q0 66 55 121q-55 52 -55 122v162q0 79 -82 79v81q163 -17 163 -160v-162q0 -81 74 -81z" />
<glyph unicode="~" d="M243 486q-69 0 -81 -81h-82q18 160 163 160q48 0 100 -46l10 -11l25 -16q12 -6 27 -6q69 0 81 79h79q-15 -160 -160 -160q-47 0 -102 46l-9 12q-29 23 -51 23z" />
<glyph horiz-adv-x="426" d="M364 0l-284 284l284 281v-79l-202 -202l202 -204v-80z" />
<glyph horiz-adv-x="283" d="M243 565v-160h-163v160q0 144 163 162v-79q-81 0 -81 -83h81z" />
<glyph horiz-adv-x="283" d="M80 565v162h163v-162q0 -144 -163 -160v81q82 0 82 79h-82z" />
<glyph horiz-adv-x="496" d="M243 565v-160h-163v160q0 144 163 162v-79q-81 0 -81 -83h81zM486 565v-160h-163v160q0 146 163 162v-79q-81 0 -81 -83h81z" />
<glyph horiz-adv-x="496" d="M80 565v162h163v-162q0 -144 -163 -160v81q82 0 82 79h-82zM323 565v162h163v-162q0 -141 -163 -160v81q82 0 82 79h-82z" />
<glyph horiz-adv-x="638" d="M80 284l284 281l284 -281l-284 -284z" />
<glyph horiz-adv-x="426" d="M405 243h-325v80h325v-80z" />
<glyph horiz-adv-x="709" d="M727 243h-647v80h647v-80z" />
<glyph horiz-adv-x="492" d="M323 565q150 0 163 -160h-81q-11 81 -78 81q-39 0 -64 -19q-20 -15 -20 -49q0 -29 117 -98q92 -48 111 -85q15 -33 15 -73q0 -66 -49 -114t-114 -48h-80q-163 0 -163 162h82q9 -82 76 -82q36 0 65 18q10 8 15.5 20t5.5 30q0 33 -118 97q-92 54 -110 86l-12 34l-4 39 q0 62 48.5 111.5t114.5 49.5h80z" />
<glyph horiz-adv-x="781" d="M243 405h-81v243h-82v79h243v-79h-80v-243zM486 405h-81v322h40l161 -162l162 162h40v-322h-81v160l-121 -120l-120 120v-160z" />
<glyph horiz-adv-x="426" d="M121 565l284 -281l-284 -284v80l202 204l-202 202v79z" />
<glyph unicode="&#xa1;" horiz-adv-x="552" d="M319 881q68 0 80 80h82q-18 -161 -162 -161q-141 0 -162 161h82q0 -80 80 -80zM401 340v387h161v-565q0 -67 -46 -115t-115 -48h-162q-66 0 -114.5 50t-48.5 113h163q0 -33 23 -59q28 -23 57 -23q34 0 58 23q24 27 24 59v98h-49q-64 0 -107.5 9t-87 47t-62.5 76.5 t-19 93.5v241h162v-305q0 -34 23.5 -58t57.5 -24h82z" />
<glyph unicode="&#xa2;" horiz-adv-x="570" d="M321 725q68 0 80 80h81q-17 -161 -161 -161q-141 0 -163 161h81q11 -80 82 -80zM80 -80h82q0 -82 81 -82h80q32 0 58 23q24 24 24 59v160q-9 -80 -82 -80h-80q-60 0 -111.5 48t-51.5 114v403h163v-403q0 -34 23 -58q27 -24 57 -24q28 0 58 24q24 26 24 58v403h160v-645 q0 -66 -48.5 -114.5t-111.5 -48.5h-162q-141 0 -163 163z" />
<glyph unicode="&#xa3;" horiz-adv-x="496" d="M80 0v162h163v-162q0 -143 -163 -162v82q70 0 82 80h-82zM323 0v162h163v-162q0 -141 -163 -162v82q69 0 82 80h-82z" />
<glyph unicode="&#xa4;" d="M80 589l59 59l103 -104q7 5 35 14l22 5l24 2q28 0 41 -5l41 -16l103 104l57 -59l-102 -103q23 -43 23 -81q0 -13 -7 -41q0 -15 -16 -41l102 -103l-57 -58l-103 102q-18 -9 -38.5 -15t-43.5 -6q-12 0 -36.5 6t-44.5 15l-103 -102l-59 58l105 103q-8 12 -16 39 q-4 14 -5.5 23.5t-1.5 19.5q0 45 23 81zM267 463q-24 -24 -24 -58q0 -29 24 -58q27 -24 56 -24t55.5 24t26.5 58q0 26 -24 58q-10 9 -26 16t-32 7q-30 0 -56 -23z" />
<glyph unicode="&#xa5;" d="M405 0h-162v162h-163v81h163v80h-163v82h163q-39 0 -68 12t-54 37q-41 43 -41 111v162h163v-162q0 -31 23 -57q25 -22 57 -22q35 0 58 22q24 27 24 57v162h160v-162q0 -70 -38.5 -109.5t-121.5 -50.5h160v-82h-160v-80h160v-81h-160v-162z" />
<glyph unicode="&#xa6;" horiz-adv-x="248" d="M162 -80v888h81v-888h-81z" />
<glyph unicode="&#xa7;" horiz-adv-x="496" d="M323 727q79 0 121 -41t42 -121h-81q-9 83 -82 83h-80q-25 0 -58 -24q-23 -28 -23 -59q0 -34 23 -57l253 -232q48 -48 48 -114q0 -72 -56 -121l9 -7q47 -44 47 -114q0 -66 -47.5 -114.5t-115.5 -48.5h-80q-79 0 -121 41t-42 122h82q9 -82 81 -82h80q32 0 58 23 q24 27 24 59q0 33 -24 57l-252 232q-24 21 -36.5 49.5t-12.5 64.5q0 75 56 122l-7 6q-49 47 -49 114q0 63 49 116q52 46 114 46h80zM185 266l187 -170q33 30 33 66q0 32 -24 58l-185 170q-34 -31 -34 -67q0 -37 23 -57z" />
<glyph unicode="&#xa8;" horiz-adv-x="496" d="M486 0h-406v727h406v-79h-243v-243h162v-82h-162v-243h243v-80zM486 803h-161v82h161v-82zM247 799h-161v82h161v-82z" />
<glyph unicode="&#xa9;" horiz-adv-x="709" d="M153 657q76 70 170 70h163q98 0 169.5 -72.5t71.5 -168.5v-243q0 -99 -70 -172q-74 -71 -171 -71h-163q-98 0 -170 71q-34 35 -53.5 78.5t-19.5 93.5v243q0 99 73 171zM210 600q-48 -50 -48 -114v-243q0 -64 48.5 -113.5t112.5 -49.5h163q61 0 111.5 48t50.5 115v243 q0 62 -48.5 112t-113.5 50h-163q-60 0 -113 -48zM410 565q75 0 115 -40t40 -120h-79q-11 81 -81 81q-33 0 -58 -25q-21 -24 -24 -56v-82q0 -30 24 -57q23 -23 58 -23q71 0 81 80h79q0 -161 -160 -161q-62 0 -115 48q-47 50 -47 113v82q0 63 45.5 111.5t121.5 48.5z" />
<glyph unicode="&#xab;" horiz-adv-x="638" d="M364 0l-284 284l284 281v-79l-202 -202l202 -204v-80zM606 0l-283 284l283 281v-79l-201 -202l201 -204v-80z" />
<glyph unicode="&#xac;" horiz-adv-x="496" d="M405 243h-325v80h406v-243h-81v163z" />
<glyph unicode="&#xad;" horiz-adv-x="648" d="M648 -80h-648v80h648v-80z" />
<glyph unicode="&#xae;" horiz-adv-x="709" d="M153 657q76 70 170 70h163q98 0 169.5 -72.5t71.5 -168.5v-243q0 -99 -70 -172q-74 -71 -171 -71h-163q-98 0 -170 71q-34 35 -53.5 78.5t-19.5 93.5v243q0 99 73 171zM600 129q48 48 48 114v243q0 62 -48.5 112t-113.5 50h-163q-60 0 -113 -48q-48 -50 -48 -114v-243 q0 -66 48 -114q44 -49 113 -49h163q64 0 114 49zM565 286v-124h-79v81q0 34 -23 57q-26 23 -58 23h-82v-161h-80v403h243q35 0 57 -22t22 -57v-41q0 -36 -20 -55q-16 -17 -59 -26q39 0 59 -20q20 -17 20 -58zM445 486h-122v-81h122q19 0 30 10.5t11 29.5q0 41 -41 41z" />
<glyph unicode="&#xaf;" horiz-adv-x="426" d="M323 0h-161v727h161v-727zM445 799h-161v82h161v-82zM206 797h-159v81h159v-81z" />
<glyph unicode="&#xb0;" horiz-adv-x="426" d="M129 453q-49 47 -49 112q0 63 49 116q52 46 114 46q65 0 113.5 -47t48.5 -115q0 -64 -46 -112t-116 -48q-66 0 -114 48zM185 624q-23 -25 -23 -59q0 -28 23 -57q25 -22 58 -22q35 0 57 22q23 26 23 57q0 33 -23 59q-24 21 -57 24q-28 0 -58 -24z" />
<glyph unicode="&#xb1;" horiz-adv-x="496" d="M243 323h-163v82h163v160h80v-160h163v-82h-163v-161h-80v161zM486 0h-406v80h406v-80z" />
<glyph unicode="&#xb2;" horiz-adv-x="283" d="M323 808h-161v82h161v-82zM323 0h-161v727h161v-727z" />
<glyph unicode="&#xb3;" horiz-adv-x="245" d="M243 648h-163v79h163v-79zM243 0h-163v565h163v-565z" />
<glyph unicode="&#xb4;" horiz-adv-x="283" d="M80 565v162h163v-162q0 -144 -163 -160v81q82 0 82 79h-82z" />
<glyph unicode="&#xb5;" horiz-adv-x="709" d="M250 -162h-161l146 727h161l-80 -403l-4 -16q0 -66 68 -66q78 0 97 82l79 403h163l-81 -403l-1 -9l-1 -7q0 -57 67 -66l-17 -80h-80q-66 0 -66 62v18q-24 -80 -95 -80h-81q-65 0 -65 62v18z" />
<glyph unicode="&#xb6;" horiz-adv-x="638" d="M648 727v-727h-83v648h-79v-648h-81v323h-162q-81 0 -141.5 60.5t-60.5 143.5q0 81 59 140.5t143 59.5h405zM405 405v243h-162v-243h162z" />
<glyph unicode="&#xb7;" horiz-adv-x="283" d="M243 243h-163v162h163v-162z" />
<glyph unicode="&#x2219;" horiz-adv-x="283" d="M243 243h-163v162h163v-162z" />
<glyph unicode="&#xb8;" d="M565 405v-162h-322v-81q0 -34 23 -58q27 -24 57 -24h82q81 0 81 82h79q-17 -162 -160 -162h-162q-60 0 -111.5 48t-51.5 114v243q0 63 48.5 111.5t114.5 48.5h162q66 0 113 -45.5t47 -114.5zM243 405v-82h162v82q0 30 -24.5 55.5t-57.5 25.5q-27 0 -56 -24 q-24 -24 -24 -57zM524 677h-161v82h161v-82zM285 674h-161v82h161v-82z" />
<glyph unicode="&#xb9;" horiz-adv-x="811" d="M644 314q-40 40 -40 92q0 51 39 90t92 39q47 0 91 -39q38 -36 38 -90q0 -52 -40 -91t-89 -39q-54 0 -91 38zM689 450q-19 -19 -19 -44q0 -24 19 -47q22 -19 46 -19q26 0 45 21t19 45t-19 44q-17 20 -45 20q-27 0 -46 -20zM860 1h-231v64h231v-64zM860 129h-231v65h231 v-65zM727 643h-166l4 -645h-37l-366 432v-430h-82v727h39l364 -440v438h244v-82z" />
<glyph unicode="&#xba;" horiz-adv-x="355" d="M162 323h81v-403h-81v403zM243 405h-81v403h81v-403z" />
<glyph unicode="&#xbb;" horiz-adv-x="638" d="M284 565l281 -281l-281 -284v80l202 204l-202 202v79zM41 565l282 -281l-282 -284v80l202 204l-202 202v79z" />
<glyph unicode="&#xbc;" horiz-adv-x="496" d="M323 405h-80v81h80v-81zM323 80h-80v82h80v-82zM486 243h-406v80h406v-80z" />
<glyph unicode="&#xbd;" d="M266 284l-186 183l59 60l184 -186l185 186l57 -60l-184 -183l184 -186l-57 -57l-185 185l-184 -185l-59 57z" />
<glyph unicode="&#xbe;" horiz-adv-x="994" d="M243 0h-163v162h163v-162zM565 0h-160v162h160v-162zM890 0h-163v162h163v-162z" />
<glyph unicode="&#xbf;" horiz-adv-x="283" d="M243 0h-163v565h163v-565zM361 673h-161v81h161v-81zM122 668h-161v82h161v-82z" />
<glyph unicode="&#xc0;" d="M243 0h-163v565q0 63 49 116q52 46 114 46h162q66 0 113 -45.5t47 -116.5v-565h-160v323h-162v-323zM243 565v-160h162v160q0 27 -24 59q-24 21 -58 24q-30 0 -57 -24q-23 -23 -23 -59z" />
<glyph unicode="&#x410;" d="M243 0h-163v565q0 63 49 116q52 46 114 46h162q66 0 113 -45.5t47 -116.5v-565h-160v323h-162v-323zM243 565v-160h162v160q0 27 -24 59q-24 21 -58 24q-30 0 -57 -24q-23 -23 -23 -59z" />
<glyph unicode="&#xc1;" d="M243 323v-243h80q26 0 58 24q24 26 24 58v81q0 80 -82 80h-80zM80 0v727h406v-79h-243v-243h181q28 0 58 -23t49 -50q38 -50 38 -119v-40q0 -72 -51.5 -122.5t-112.5 -50.5h-325z" />
<glyph unicode="&#x411;" d="M243 323v-243h80q26 0 58 24q24 26 24 58v81q0 80 -82 80h-80zM80 0v727h406v-79h-243v-243h181q28 0 58 -23t49 -50q38 -50 38 -119v-40q0 -72 -51.5 -122.5t-112.5 -50.5h-325z" />
<glyph unicode="&#xc2;" d="M405 0h-325v727h325q66 0 113 -45.5t47 -116.5v-38q0 -72 -35.5 -108.5t-124.5 -54.5q74 0 122 -48q38 -49 38 -114v-40q0 -66 -49 -114t-111 -48zM243 648v-243h80q34 0 58 23q24 26 24 58v79q0 27 -24 59q-24 21 -58 24h-80zM243 323v-243h80q26 0 58 24q24 26 24 58 v81q0 80 -82 80h-80z" />
<glyph unicode="&#x412;" d="M405 0h-325v727h325q66 0 113 -45.5t47 -116.5v-38q0 -72 -35.5 -108.5t-124.5 -54.5q74 0 122 -48q38 -49 38 -114v-40q0 -66 -49 -114t-111 -48zM243 648v-243h80q34 0 58 23q24 26 24 58v79q0 27 -24 59q-24 21 -58 24h-80zM243 323v-243h80q26 0 58 24q24 26 24 58 v81q0 80 -82 80h-80z" />
<glyph unicode="&#xc3;" horiz-adv-x="484" d="M243 0h-163v727h406v-79h-243v-648z" />
<glyph unicode="&#x413;" horiz-adv-x="484" d="M243 0h-163v727h406v-79h-243v-648z" />
<glyph unicode="&#xc4;" horiz-adv-x="712" d="M142 77v377q0 110 81.5 192.5t193.5 82.5h210v-652h86v-225h-159v148h-342v-148h-160v225h90zM302 77h162v572h-79q-33 0 -58 -24.5t-25 -56.5v-491z" />
<glyph unicode="&#x414;" horiz-adv-x="712" d="M142 77v377q0 110 81.5 192.5t193.5 82.5h210v-652h86v-225h-159v148h-342v-148h-160v225h90zM302 77h162v572h-79q-33 0 -58 -24.5t-25 -56.5v-491z" />
<glyph unicode="&#xc5;" horiz-adv-x="489" d="M486 0h-406v727h406v-79h-243v-243h162v-82h-162v-243h243v-80z" />
<glyph unicode="&#x415;" horiz-adv-x="489" d="M486 0h-406v727h406v-79h-243v-243h162v-82h-162v-243h243v-80z" />
<glyph unicode="&#xc6;" horiz-adv-x="749" d="M487 727v-322q16 0 29.5 4.5t30.5 15.5q41 27 41 60v242h160v-200q0 -144 -160 -163q160 -21 160 -162v-202h-160v243q0 11 -11.5 29.5t-25.5 30.5q-26 21 -65 21v-99l-1 -126v-99h-162v324q-33 3 -76 -18q-25 -25 -25 -63v-243h-163v202q0 141 163 162q-163 18 -163 163 v200h163v-241q0 -33 28 -65q23 -17 56 -17l18 1v322h163z" />
<glyph unicode="&#x416;" horiz-adv-x="749" d="M487 727v-322q16 0 29.5 4.5t30.5 15.5q41 27 41 60v242h160v-200q0 -144 -160 -163q160 -21 160 -162v-202h-160v243q0 11 -11.5 29.5t-25.5 30.5q-26 21 -65 21v-99l-1 -126v-99h-162v324q-33 3 -76 -18q-25 -25 -25 -63v-243h-163v202q0 141 163 162q-163 18 -163 163 v200h163v-241q0 -33 28 -65q23 -17 56 -17l18 1v322h163z" />
<glyph unicode="&#xc7;" d="M74 208h86q8 -53 20 -70t35 -34l31 -12l46 -4q54 0 87 27q36 24 43 56l5 42v17q0 40 -10 70q-18 57 -82 94q42 21 55 37t21 45l3 32l1 51q0 48 -35 73q-31 20 -80 20h-21l-20 -3l-19 -6l-20 -10q-11 -7 -22 -21q-8 -13 -15 -41l-84 -1q0 40 7 60q6 25 29 46q53 51 108 51 h162q64 0 111 -46q24 -23 34 -59t10 -74l-3 -37q-2 -14 -9 -37t-28 -41l-20 -15l-34 -20q53 -31 75 -65q8 -14 15 -46t7 -78q0 -116 -47.5 -162.5t-110.5 -46.5h-162q-63 0 -114 48q-55 55 -55 160z" />
<glyph unicode="&#x417;" d="M74 208h86q8 -53 20 -70t35 -34l31 -12l46 -4q54 0 87 27q36 24 43 56l5 42v17q0 40 -10 70q-18 57 -82 94q42 21 55 37t21 45l3 32l1 51q0 48 -35 73q-31 20 -80 20h-21l-20 -3l-19 -6l-20 -10q-11 -7 -22 -21q-8 -13 -15 -41l-84 -1q0 40 7 60q6 25 29 46q53 51 108 51 h162q64 0 111 -46q24 -23 34 -59t10 -74l-3 -37q-2 -14 -9 -37t-28 -41l-20 -15l-34 -20q53 -31 75 -65q8 -14 15 -46t7 -78q0 -116 -47.5 -162.5t-110.5 -46.5h-162q-63 0 -114 48q-55 55 -55 160z" />
<glyph unicode="&#xc8;" horiz-adv-x="617" d="M243 0h-163v727h163v-571l210 431v140h160v-727h-160v429z" />
<glyph unicode="&#x418;" horiz-adv-x="617" d="M243 0h-163v727h163v-571l210 431v140h160v-727h-160v429z" />
<glyph unicode="&#xc9;" horiz-adv-x="616" d="M349 878q71 0 81 82h81q-18 -162 -162 -162q-141 0 -162 162h81q9 -82 81 -82zM243 0h-163v727h163v-571l210 431v140h160v-727h-160v429z" />
<glyph unicode="&#x419;" horiz-adv-x="616" d="M349 878q71 0 81 82h81q-18 -162 -162 -162q-141 0 -162 162h81q9 -82 81 -82zM243 0h-163v727h163v-571l210 431v140h160v-727h-160v429z" />
<glyph unicode="&#xca;" horiz-adv-x="631" d="M243 0h-163v727h163v-296l261 296h144l-325 -363l325 -364h-162l-243 284v-284z" />
<glyph unicode="&#x41a;" horiz-adv-x="631" d="M243 0h-163v727h163v-296l261 296h144l-325 -363l325 -364h-162l-243 284v-284z" />
<glyph unicode="&#xcb;" horiz-adv-x="584" d="M254 567v-566h-159v452q0 110 81.5 192.5t193.5 82.5h210v-727h-163v647h-80q-33 0 -58 -24.5t-25 -56.5z" />
<glyph unicode="&#x41b;" horiz-adv-x="584" d="M254 567v-566h-159v452q0 110 81.5 192.5t193.5 82.5h210v-727h-163v647h-80q-33 0 -58 -24.5t-25 -56.5z" />
<glyph unicode="&#xcc;" horiz-adv-x="896" d="M162 0h-82v727h39l344 -344l345 344h82v-727h-163v445l-282 -283l-283 283v-445z" />
<glyph unicode="&#x41c;" horiz-adv-x="896" d="M162 0h-82v727h39l344 -344l345 344h82v-727h-163v445l-282 -283l-283 283v-445z" />
<glyph unicode="&#xcd;" d="M243 0h-163v727h163v-322h162v322h160v-727h-160v323h-162v-323z" />
<glyph unicode="&#x41d;" d="M243 0h-163v727h163v-322h162v322h160v-727h-160v323h-162v-323z" />
<glyph unicode="&#xce;" d="M129 681q52 46 114 46h162q66 0 113 -45.5t47 -116.5v-403q0 -68 -47 -114q-45 -48 -113 -48h-162q-60 0 -111.5 48t-51.5 114v403q0 63 49 116zM266 624q-23 -23 -23 -59v-403q0 -34 23 -58q27 -24 57 -24q28 0 58 24q24 26 24 58v403q0 27 -24 59q-24 21 -58 24 q-30 0 -57 -24z" />
<glyph unicode="&#x41e;" d="M129 681q52 46 114 46h162q66 0 113 -45.5t47 -116.5v-403q0 -68 -47 -114q-45 -48 -113 -48h-162q-60 0 -111.5 48t-51.5 114v403q0 63 49 116zM266 624q-23 -23 -23 -59v-403q0 -34 23 -58q27 -24 57 -24q28 0 58 24q24 26 24 58v403q0 27 -24 59q-24 21 -58 24 q-30 0 -57 -24z" />
<glyph unicode="&#xcf;" d="M80 727h485v-727h-160v646h-162v-646h-163v727z" />
<glyph unicode="&#x41f;" d="M80 727h485v-727h-160v646h-162v-646h-163v727z" />
<glyph unicode="&#xd0;" d="M243 0h-163v727h325q66 0 113 -45.5t47 -116.5v-79q0 -68 -47 -114q-21 -24 -48.5 -36.5t-64.5 -12.5h-162v-323zM243 648v-243h80q34 0 58 23q24 26 24 58v79q0 27 -24 59q-24 21 -58 24h-80z" />
<glyph unicode="&#x420;" d="M243 0h-163v727h325q66 0 113 -45.5t47 -116.5v-79q0 -68 -47 -114q-21 -24 -48.5 -36.5t-64.5 -12.5h-162v-323zM243 648v-243h80q34 0 58 23q24 26 24 58v79q0 27 -24 59q-24 21 -58 24h-80z" />
<glyph unicode="&#xd1;" d="M486 162h79q0 -162 -160 -162h-162q-60 0 -111.5 48t-51.5 114v403q0 66 49 114q45 48 114 48h162q160 0 160 -162h-79q-9 83 -81 83h-82q-30 0 -57 -24q-23 -23 -23 -59v-403q0 -34 23 -58q27 -24 57 -24h82q69 0 81 82z" />
<glyph unicode="&#x421;" d="M486 162h79q0 -162 -160 -162h-162q-60 0 -111.5 48t-51.5 114v403q0 66 49 114q45 48 114 48h162q160 0 160 -162h-79q-9 83 -81 83h-82q-30 0 -57 -24q-23 -23 -23 -59v-403q0 -34 23 -58q27 -24 57 -24h82q69 0 81 82z" />
<glyph unicode="&#xd2;" horiz-adv-x="519" d="M358 0h-161v648h-162v79h486v-79h-163v-648z" />
<glyph unicode="&#x422;" horiz-adv-x="519" d="M358 0h-161v648h-162v79h486v-79h-163v-648z" />
<glyph unicode="&#xd3;" d="M401 340v387h161v-565q0 -67 -46 -115t-115 -48h-162q-66 0 -114.5 50t-48.5 113l96 1q5 -29 13 -40l27 -26q22 -17 107 -17q34 0 58 23q24 27 24 59v98h-49q-64 0 -107.5 9t-87 47t-62.5 76.5t-19 93.5v241h162v-305q0 -34 23.5 -58t57.5 -24h82z" />
<glyph unicode="&#x423;" d="M401 340v387h161v-565q0 -67 -46 -115t-115 -48h-162q-66 0 -114.5 50t-48.5 113l96 1q5 -29 13 -40l27 -26q22 -17 107 -17q34 0 58 23q24 27 24 59v98h-49q-64 0 -107.5 9t-87 47t-62.5 76.5t-19 93.5v241h162v-305q0 -34 23.5 -58t57.5 -24h82z" />
<glyph unicode="&#xd4;" horiz-adv-x="872" d="M389 0v158h-163q-62 0 -111 48t-49 114v81q0 65 48.5 114.5t111.5 49.5h162v162h160v-162h162q66 0 113.5 -47t47.5 -113v-82q0 -63 -46 -112t-115 -49h-162v-162h-159zM548 486v-243h80q34 0 58 23q24 26 24 57v82q0 30 -24.5 55.5t-57.5 25.5h-80zM389 239v243h-81 q-29 0 -58 -24q-24 -27 -24 -57v-81q0 -30 24 -57q26 -24 58 -24h81z" />
<glyph unicode="&#x424;" horiz-adv-x="872" d="M389 0v158h-163q-62 0 -111 48t-49 114v81q0 65 48.5 114.5t111.5 49.5h162v162h160v-162h162q66 0 113.5 -47t47.5 -113v-82q0 -63 -46 -112t-115 -49h-162v-162h-159zM548 486v-243h80q34 0 58 23q24 26 24 57v82q0 30 -24.5 55.5t-57.5 25.5h-80zM389 239v243h-81 q-29 0 -58 -24q-24 -27 -24 -57v-81q0 -30 24 -57q26 -24 58 -24h81z" />
<glyph unicode="&#xd5;" d="M243 0h-163v202q0 141 163 162q-163 18 -163 163v200h163v-241q0 -34 23 -58q26 -23 57 -23q34 0 58 23q24 26 24 58v241h160v-200q0 -144 -160 -163q160 -21 160 -162v-202h-160v243q0 30 -23.5 55t-58.5 25q-31 0 -57 -23q-23 -23 -23 -57v-243z" />
<glyph unicode="&#x425;" d="M243 0h-163v202q0 141 163 162q-163 18 -163 163v200h163v-241q0 -34 23 -58q26 -23 57 -23q34 0 58 23q24 26 24 58v241h160v-200q0 -144 -160 -163q160 -21 160 -162v-202h-160v243q0 30 -23.5 55t-58.5 25q-31 0 -57 -23q-23 -23 -23 -57v-243z" />
<glyph unicode="&#xd6;" horiz-adv-x="656" d="M496 -146v145l-416 1v727h163v-647h162v647h160v-651h92v-222h-161z" />
<glyph unicode="&#x426;" horiz-adv-x="656" d="M496 -146v145l-416 1v727h163v-647h162v647h160v-651h92v-222h-161z" />
<glyph unicode="&#xd7;" d="M562 0l-166 -2v262h-44q-64 0 -107.5 9t-87 47t-62.5 76.5t-19 93.5v241h162v-305q0 -34 23 -57.5t55 -23.5h83v386h163v-727z" />
<glyph unicode="&#x427;" d="M562 0l-166 -2v262h-44q-64 0 -107.5 9t-87 47t-62.5 76.5t-19 93.5v241h162v-305q0 -34 23 -57.5t55 -23.5h83v386h163v-727z" />
<glyph unicode="&#xd8;" horiz-adv-x="895" d="M890 1l-810 -1v727h163v-647h162v647h160v-647h162v647h163v-726z" />
<glyph unicode="&#x428;" horiz-adv-x="895" d="M890 1l-810 -1v727h163v-647h162v647h160v-647h162v647h163v-726z" />
<glyph unicode="&#xd9;" horiz-adv-x="984" d="M823 0h-823h251l321 1h252h-227l-290 -1h-227v727h163v-647h162v647h160v-647h162v647h163v-647h94v-226h-161v146z" />
<glyph unicode="&#x429;" horiz-adv-x="984" d="M823 0h-823h251l321 1h252h-227l-290 -1h-227v727h163v-647h162v647h160v-647h162v647h163v-647h94v-226h-161v146z" />
<glyph unicode="&#xda;" horiz-adv-x="709" d="M382 352v-270h81q35 3 58 25q24 27 24 57v107q0 30 -24.5 55.5t-57.5 25.5h-81zM381 727l1 -294h163q34 0 59.5 -11t53.5 -37q48 -48 48 -114v-107q0 -69 -48 -114q-48 -50 -113 -50h-324v648h-163v79h323z" />
<glyph unicode="&#x42a;" horiz-adv-x="709" d="M382 352v-270h81q35 3 58 25q24 27 24 57v107q0 30 -24.5 55.5t-57.5 25.5h-81zM381 727l1 -294h163q34 0 59.5 -11t53.5 -37q48 -48 48 -114v-107q0 -69 -48 -114q-48 -50 -113 -50h-324v648h-163v79h323z" />
<glyph unicode="&#xdb;" horiz-adv-x="780" d="M777 -2h-160v727h160v-727zM86 727h163v-297h161q64 0 112.5 -48.5t48.5 -113.5v-106q0 -64 -47.5 -113.5t-113.5 -49.5h-324v728zM249 349v-269h79q36 0 57 24q25 22 25 58v106q0 35 -25 57q-21 24 -57 24h-79z" />
<glyph unicode="&#x42b;" horiz-adv-x="780" d="M777 -2h-160v727h160v-727zM86 727h163v-297h161q64 0 112.5 -48.5t48.5 -113.5v-106q0 -64 -47.5 -113.5t-113.5 -49.5h-324v728zM249 349v-269h79q36 0 57 24q25 22 25 58v106q0 35 -25 57q-21 24 -57 24h-79z" />
<glyph unicode="&#xdc;" horiz-adv-x="573" d="M86 727h163v-297h161q64 0 112.5 -48.5t48.5 -113.5v-106q0 -64 -47.5 -113.5t-113.5 -49.5h-324v728zM249 349v-269h79q36 0 57 24q25 22 25 58v106q0 35 -25 57q-21 24 -57 24h-79z" />
<glyph unicode="&#x42c;" horiz-adv-x="573" d="M86 727h163v-297h161q64 0 112.5 -48.5t48.5 -113.5v-106q0 -64 -47.5 -113.5t-113.5 -49.5h-324v728zM249 349v-269h79q36 0 57 24q25 22 25 58v106q0 35 -25 57q-21 24 -57 24h-79z" />
<glyph unicode="&#xdd;" d="M401 323h-162v82h162v160q0 36 -23 59q-27 24 -57 24h-82q-69 0 -81 -83h-79q0 162 160 162h162q69 0 114 -48q49 -47 49 -114v-403q0 -66 -48.5 -114t-114.5 -48h-162q-75 0 -117.5 40.5t-42.5 121.5h79q12 -82 81 -82h82q30 0 57 24q8 10 16 25q7 18 7 33v161z" />
<glyph unicode="&#x42d;" d="M401 323h-162v82h162v160q0 36 -23 59q-27 24 -57 24h-82q-69 0 -81 -83h-79q0 162 160 162h162q69 0 114 -48q49 -47 49 -114v-403q0 -66 -48.5 -114t-114.5 -48h-162q-75 0 -117.5 40.5t-42.5 121.5h79q12 -82 81 -82h82q30 0 57 24q8 10 16 25q7 18 7 33v161z" />
<glyph unicode="&#xde;" horiz-adv-x="837" d="M536 624q-23 -23 -23 -59v-403q0 -34 23 -58q27 -24 57 -24q28 0 58 24q24 26 24 58v403q0 27 -24 59q-27 24 -58 24q-30 0 -57 -24zM350 162v150h-115v-312h-160v727h160v-333h115v171q0 63 49 116q52 46 114 46h162q66 0 113.5 -47t47.5 -115v-403q0 -66 -45.5 -114 t-115.5 -48h-162q-64 0 -113.5 48.5t-49.5 113.5z" />
<glyph unicode="&#x42e;" horiz-adv-x="837" d="M536 624q-23 -23 -23 -59v-403q0 -34 23 -58q27 -24 57 -24q28 0 58 24q24 26 24 58v403q0 27 -24 59q-27 24 -58 24q-30 0 -57 -24zM350 162v150h-115v-312h-160v727h160v-333h115v171q0 63 49 116q52 46 114 46h162q66 0 113.5 -47t47.5 -115v-403q0 -66 -45.5 -114 t-115.5 -48h-162q-64 0 -113.5 48.5t-49.5 113.5z" />
<glyph unicode="&#xdf;" horiz-adv-x="575" d="M572 -3h-162v322h-79q-30 0 -39 -6l-26 -30q-17 -23 -17 -58v-228h-161v231q0 34 26 79q17 27 54 38l81 19q-85 0 -123 48.5t-38 105.5v44q0 66 45 114t116 48h323v-727zM410 401v243h-79q-33 0 -60 -24q-22 -25 -22 -58v-81q0 -34 22 -57q28 -23 60 -23h79z" />
<glyph unicode="&#x42f;" horiz-adv-x="575" d="M572 -3h-162v322h-79q-30 0 -39 -6l-26 -30q-17 -23 -17 -58v-228h-161v231q0 34 26 79q17 27 54 38l81 19q-85 0 -123 48.5t-38 105.5v44q0 66 45 114t116 48h323v-727zM410 401v243h-79q-33 0 -60 -24q-22 -25 -22 -58v-81q0 -34 22 -57q28 -23 60 -23h79z" />
<glyph unicode="&#xe0;" d="M405 323v82q0 30 -24.5 55.5t-57.5 25.5h-67q-66 0 -80 -81h-83q21 160 163 160h149q66 0 113 -45.5t47 -114.5v-405h-160v80q-9 -80 -82 -80h-80q-60 0 -111.5 48t-51.5 114q0 62 48.5 111.5t114.5 49.5h162zM405 243h-82q-31 0 -57 -23q-9 -10 -16 -26t-7 -32 q0 -34 23 -58q27 -24 57 -24q28 0 58 24q24 26 24 58v81z" />
<glyph unicode="&#x430;" d="M405 323v82q0 30 -24.5 55.5t-57.5 25.5h-67q-66 0 -80 -81h-83q21 160 163 160h149q66 0 113 -45.5t47 -114.5v-405h-160v80q-9 -80 -82 -80h-80q-60 0 -111.5 48t-51.5 114q0 62 48.5 111.5t114.5 49.5h162zM405 243h-82q-31 0 -57 -23q-9 -10 -16 -26t-7 -32 q0 -34 23 -58q27 -24 57 -24q28 0 58 24q24 26 24 58v81z" />
<glyph unicode="&#xe1;" d="M266 461q-23 -23 -23 -56v-243q0 -34 23 -58q27 -24 57 -24q28 0 58 24q24 26 24 58v243q0 30 -24.5 55.5t-57.5 25.5q-31 0 -57 -25zM405 565q66 0 113 -45.5t47 -114.5v-243q0 -68 -47 -114q-45 -48 -113 -48h-162q-60 0 -111.5 48t-51.5 114v454q0 69 47 112 q31 26 70 34l156 11h20l21 1l20 5l21 7q22 8 45 34l66 -79q-26 -30 -67 -50q-36 -15 -102 -21l-95 -9h-18l-19 -5q-8 -1 -21 -8t-25 -28q-7 -17 -10 -35v-54q12 34 66 34h150z" />
<glyph unicode="&#x431;" d="M266 461q-23 -23 -23 -56v-243q0 -34 23 -58q27 -24 57 -24q28 0 58 24q24 26 24 58v243q0 30 -24.5 55.5t-57.5 25.5q-31 0 -57 -25zM405 565q66 0 113 -45.5t47 -114.5v-243q0 -68 -47 -114q-45 -48 -113 -48h-162q-60 0 -111.5 48t-51.5 114v454q0 69 47 112 q31 26 70 34l156 11h20l21 1l20 5l21 7q22 8 45 34l66 -79q-26 -30 -67 -50q-36 -15 -102 -21l-95 -9h-18l-19 -5q-8 -1 -21 -8t-25 -28q-7 -17 -10 -35v-54q12 34 66 34h150z" />
<glyph unicode="&#xe2;" horiz-adv-x="501" d="M336 0h-256v565h248q72 0 117 -39q22 -20 30 -44l6 -25l5 -35l-3 -33l-13 -34l-20 -29l-42 -26q39 -18 53 -32q12 -9 25 -34.5t13 -71.5q0 -66 -49 -114t-114 -48zM244 326l28 -2q18 0 32 7q46 18 46 82q0 63 -48 86l-19 4h-17l-22 -4v-173zM300 244l-30 4l-26 -3v-181 l25 -4q22 0 42 10q41 18 41 83q0 69 -52 91z" />
<glyph unicode="&#x432;" horiz-adv-x="501" d="M336 0h-256v565h248q72 0 117 -39q22 -20 30 -44l6 -25l5 -35l-3 -33l-13 -34l-20 -29l-42 -26q39 -18 53 -32q12 -9 25 -34.5t13 -71.5q0 -66 -49 -114t-114 -48zM244 326l28 -2q18 0 32 7q46 18 46 82q0 63 -48 86l-19 4h-17l-22 -4v-173zM300 244l-30 4l-26 -3v-181 l25 -4q22 0 42 10q41 18 41 83q0 69 -52 91z" />
<glyph unicode="&#xe3;" horiz-adv-x="505" d="M251 484v-484h-163v565h413v-81h-250z" />
<glyph unicode="&#x433;" horiz-adv-x="505" d="M251 484v-484h-163v565h413v-81h-250z" />
<glyph unicode="&#xe4;" horiz-adv-x="745" d="M581 -1h-335l-1 -156h-158v232h93v215q0 111 82 192q34 35 81 62q42 21 97 21h210v-490h96v-232h-165v156zM488 80v404h-65q-33 0 -58 -25q-23 -20 -23 -55v-324h146z" />
<glyph unicode="&#x434;" horiz-adv-x="745" d="M581 -1h-335l-1 -156h-158v232h93v215q0 111 82 192q34 35 81 62q42 21 97 21h210v-490h96v-232h-165v156zM488 80v404h-65q-33 0 -58 -25q-23 -20 -23 -55v-324h146z" />
<glyph unicode="&#xe5;" d="M565 405v-162h-322v-81q0 -34 23 -58q27 -24 57 -24h82q81 0 81 82h79q-17 -162 -160 -162h-162q-60 0 -111.5 48t-51.5 114v243q0 63 48.5 111.5t114.5 48.5h162q66 0 113 -45.5t47 -114.5zM243 405v-82h162v82q0 30 -24.5 55.5t-57.5 25.5q-27 0 -56 -24 q-24 -24 -24 -57z" />
<glyph unicode="&#x435;" d="M565 405v-162h-322v-81q0 -34 23 -58q27 -24 57 -24h82q81 0 81 82h79q-17 -162 -160 -162h-162q-60 0 -111.5 48t-51.5 114v243q0 63 48.5 111.5t114.5 48.5h162q66 0 113 -45.5t47 -114.5zM243 405v-82h162v82q0 30 -24.5 55.5t-57.5 25.5q-27 0 -56 -24 q-24 -24 -24 -57z" />
<glyph unicode="&#xe6;" horiz-adv-x="710" d="M303 321v242h163v-240q29 0 55.5 24t26.5 58v160h161v-120q0 -69 -40 -113q-39 -39 -121 -48q77 -12 121 -51q40 -43 40 -112v-121h-161v162q0 30 -24.5 55.5t-57.5 25.5v-244h-163v243q-32 0 -57 -25q-23 -21 -23 -55v-163h-163v122q0 67 39.5 108.5t123.5 53.5 q-38 0 -67.5 12t-51 33.5t-33 51.5t-11.5 62v121h163v-159q0 -33 23 -59q24 -21 57 -24z" />
<glyph unicode="&#x436;" horiz-adv-x="710" d="M303 321v242h163v-240q29 0 55.5 24t26.5 58v160h161v-120q0 -69 -40 -113q-39 -39 -121 -48q77 -12 121 -51q40 -43 40 -112v-121h-161v162q0 30 -24.5 55.5t-57.5 25.5v-244h-163v243q-32 0 -57 -25q-23 -21 -23 -55v-163h-163v122q0 67 39.5 108.5t123.5 53.5 q-38 0 -67.5 12t-51 33.5t-33 51.5t-11.5 62v121h163v-159q0 -33 23 -59q24 -21 57 -24z" />
<glyph unicode="&#xe7;" horiz-adv-x="490" d="M250 291q63 27 70 55l4 32l-3 34q0 31 -27 55q-15 12 -25 15l-25 4q-66 0 -78 -81h-80q0 76 42 118t121 42h66q67 0 114 -47q3 -3 12.5 -14.5t19.5 -27.5l11 -54l-3 -33q-3 -15 -13 -33l-9 -16l-10 -13l-43 -27q43 -20 53 -30q4 -4 12 -15.5t12 -19.5q15 -33 15 -73 q0 -66 -49 -114t-114 -48h-80q-163 0 -163 162h82q9 -82 76 -82q36 0 65 18q14 11 26 48q6 24 6 43q0 75 -85 102z" />
<glyph unicode="&#x437;" horiz-adv-x="490" d="M250 291q63 27 70 55l4 32l-3 34q0 31 -27 55q-15 12 -25 15l-25 4q-66 0 -78 -81h-80q0 76 42 118t121 42h66q67 0 114 -47q3 -3 12.5 -14.5t19.5 -27.5l11 -54l-3 -33q-3 -15 -13 -33l-9 -16l-10 -13l-43 -27q43 -20 53 -30q4 -4 12 -15.5t12 -19.5q15 -33 15 -73 q0 -66 -49 -114t-114 -48h-80q-163 0 -163 162h82q9 -82 76 -82q36 0 65 18q14 11 26 48q6 24 6 43q0 75 -85 102z" />
<glyph unicode="&#xe8;" d="M405 565h160v-565h-160v80q-9 -80 -82 -80h-80q-60 0 -111.5 48t-51.5 114v403h163v-403q0 -34 23 -58q27 -24 57 -24q28 0 58 24q24 26 24 58v403z" />
<glyph unicode="&#x438;" d="M405 565h160v-565h-160v80q-9 -80 -82 -80h-80q-60 0 -111.5 48t-51.5 114v403h163v-403q0 -34 23 -58q27 -24 57 -24q28 0 58 24q24 26 24 58v403z" />
<glyph unicode="&#xe9;" d="M405 565h160v-565h-160v80q-9 -80 -82 -80h-80q-60 0 -111.5 48t-51.5 114v403h163v-403q0 -34 23 -58q27 -24 57 -24q28 0 58 24q24 26 24 58v403zM327 722q69 0 81 81h81q-18 -161 -162 -161q-141 0 -162 161h81q11 -81 81 -81z" />
<glyph unicode="&#x439;" d="M405 565h160v-565h-160v80q-9 -80 -82 -80h-80q-60 0 -111.5 48t-51.5 114v403h163v-403q0 -34 23 -58q27 -24 57 -24q28 0 58 24q24 26 24 58v403zM327 722q69 0 81 81h81q-18 -161 -162 -161q-141 0 -162 161h81q11 -81 81 -81z" />
<glyph unicode="&#xea;" horiz-adv-x="609" d="M243 0h-163v565h163v-201l202 201h147l-284 -281l340 -284h-162l-243 202v-202z" />
<glyph unicode="&#x43a;" horiz-adv-x="609" d="M243 0h-163v565h163v-201l202 201h147l-284 -281l340 -284h-162l-243 202v-202z" />
<glyph unicode="&#xeb;" d="M238 404v-405h-162v291q0 109 81 192t195 83h210v-566h-162v485h-81q-33 0 -58 -25q-23 -20 -23 -55z" />
<glyph unicode="&#x43b;" d="M238 404v-405h-162v291q0 109 81 192t195 83h210v-566h-162v485h-81q-33 0 -58 -25q-23 -20 -23 -55z" />
<glyph unicode="&#xec;" horiz-adv-x="699" d="M164 336v-337l-78 -2v568h30l265 -297l263 297h50v-568h-160v312l-176 -197z" />
<glyph unicode="&#x43c;" horiz-adv-x="699" d="M164 336v-337l-78 -2v568h30l265 -297l263 297h50v-568h-160v312l-176 -197z" />
<glyph unicode="&#xed;" d="M243 258v-258h-163v565h163v-225h162v225h160v-565h-160v258h-162z" />
<glyph unicode="&#x43d;" d="M243 258v-258h-163v565h163v-225h162v225h160v-565h-160v258h-162z" />
<glyph unicode="&#xee;" d="M129 518q47 47 114 47h162q66 0 113 -45.5t47 -114.5v-243q0 -68 -47 -114q-45 -48 -113 -48h-162q-60 0 -111.5 48t-51.5 114v243q0 63 49 113zM266 461q-23 -23 -23 -56v-243q0 -34 23 -58q27 -24 57 -24q28 0 58 24q24 26 24 58v243q0 30 -24.5 55.5t-57.5 25.5 q-31 0 -57 -25z" />
<glyph unicode="&#x43e;" d="M129 518q47 47 114 47h162q66 0 113 -45.5t47 -114.5v-243q0 -68 -47 -114q-45 -48 -113 -48h-162q-60 0 -111.5 48t-51.5 114v243q0 63 49 113zM266 461q-23 -23 -23 -56v-243q0 -34 23 -58q27 -24 57 -24q28 0 58 24q24 26 24 58v243q0 30 -24.5 55.5t-57.5 25.5 q-31 0 -57 -25z" />
<glyph unicode="&#xef;" horiz-adv-x="574" d="M248 484v-484h-163v565h485v-565h-161v484h-161z" />
<glyph unicode="&#x43f;" horiz-adv-x="574" d="M248 484v-484h-163v565h485v-565h-161v484h-161z" />
<glyph unicode="&#xf0;" d="M80 -162v727h163v-79q0 36 18.5 57.5t61.5 21.5h82q66 0 113 -45.5t47 -114.5v-243q0 -68 -47 -114q-45 -48 -113 -48h-162v-162h-163zM243 405v-325h80q26 0 58 24q24 26 24 58v243q0 27 -24 56q-18 21 -58 25q-27 0 -56 -24q-24 -24 -24 -57z" />
<glyph unicode="&#x440;" d="M80 -162v727h163v-79q0 36 18.5 57.5t61.5 21.5h82q66 0 113 -45.5t47 -114.5v-243q0 -68 -47 -114q-45 -48 -113 -48h-162v-162h-163zM243 405v-325h80q26 0 58 24q24 26 24 58v243q0 27 -24 56q-18 21 -58 25q-27 0 -56 -24q-24 -24 -24 -57z" />
<glyph unicode="&#xf1;" horiz-adv-x="492" d="M323 565q150 0 163 -160h-81q-9 81 -82 81q-27 0 -56 -24q-24 -24 -24 -57v-243q0 -34 23 -58q27 -24 57 -24q72 0 82 82h81q0 -78 -43 -120t-120 -42h-80q-60 0 -111.5 48t-51.5 114v243q0 63 48.5 111.5t114.5 48.5h80z" />
<glyph unicode="&#x441;" horiz-adv-x="492" d="M323 565q150 0 163 -160h-81q-9 81 -82 81q-27 0 -56 -24q-24 -24 -24 -57v-243q0 -34 23 -58q27 -24 57 -24q72 0 82 82h81q0 -78 -43 -120t-120 -42h-80q-60 0 -111.5 48t-51.5 114v243q0 63 48.5 111.5t114.5 48.5h80z" />
<glyph unicode="&#xf2;" horiz-adv-x="526" d="M529 565v-81h-160v-484h-163v484h-162v81h485z" />
<glyph unicode="&#x442;" horiz-adv-x="526" d="M529 565v-81h-160v-484h-163v484h-162v81h485z" />
<glyph unicode="&#xf3;" d="M80 -80h82q0 -82 81 -82h80q32 0 58 23q24 24 24 59v160q-9 -80 -82 -80h-80q-60 0 -111.5 48t-51.5 114v403h163v-403q0 -34 23 -58q27 -24 57 -24q28 0 58 24q24 26 24 58v403h160v-645q0 -66 -48.5 -114.5t-111.5 -48.5h-162q-141 0 -163 163z" />
<glyph unicode="&#x443;" d="M80 -80h82q0 -82 81 -82h80q32 0 58 23q24 24 24 59v160q-9 -80 -82 -80h-80q-60 0 -111.5 48t-51.5 114v403h163v-403q0 -34 23 -58q27 -24 57 -24q28 0 58 24q24 26 24 58v403h160v-645q0 -66 -48.5 -114.5t-111.5 -48.5h-162q-141 0 -163 163z" />
<glyph unicode="&#xf4;" horiz-adv-x="876" d="M387 -162l1 163h-160q-65 0 -114 46q-48 51 -48 114v243q0 61 48 111.5t114 50.5h81q34 0 54 -19q25 -25 25 -62l-1 121v122h163v-243q0 17 6 32.5t19 29.5q25 19 55 19h82q62 0 111.5 -48.5t49.5 -113.5v-243q0 -64 -47 -112t-114 -48h-162v-163h-163zM388 81v323 q0 35 -23 58t-56 23q-36 0 -57 -24q-24 -24 -24 -57v-243q0 -32 23 -55q20 -25 58 -25h79zM550 404v-323h80q36 0 58 25q24 24 24 55v243q0 27 -24 56q-25 25 -58 25q-30 0 -57 -24q-23 -23 -23 -57z" />
<glyph unicode="&#x444;" horiz-adv-x="876" d="M387 -162l1 163h-160q-65 0 -114 46q-48 51 -48 114v243q0 61 48 111.5t114 50.5h81q34 0 54 -19q25 -25 25 -62l-1 121v122h163v-243q0 17 6 32.5t19 29.5q25 19 55 19h82q62 0 111.5 -48.5t49.5 -113.5v-243q0 -64 -47 -112t-114 -48h-162v-163h-163zM388 81v323 q0 35 -23 58t-56 23q-36 0 -57 -24q-24 -24 -24 -57v-243q0 -32 23 -55q20 -25 58 -25h79zM550 404v-323h80q36 0 58 25q24 24 24 55v243q0 27 -24 56q-25 25 -58 25q-30 0 -57 -24q-23 -23 -23 -57z" />
<glyph unicode="&#xf5;" d="M243 0h-163v121q0 68 39 108t124 55q-77 9 -122 48q-41 44 -41 113v120h163v-160q0 -34 23 -58q26 -21 57 -24q29 0 55.5 24t26.5 58v160h160v-120q0 -72 -38 -113q-42 -39 -122 -48q77 -12 122 -51q38 -41 38 -112v-121h-160v162q0 30 -24.5 55.5t-57.5 25.5 q-31 0 -55.5 -23t-24.5 -58v-162z" />
<glyph unicode="&#x445;" d="M243 0h-163v121q0 68 39 108t124 55q-77 9 -122 48q-41 44 -41 113v120h163v-160q0 -34 23 -58q26 -21 57 -24q29 0 55.5 24t26.5 58v160h160v-120q0 -72 -38 -113q-42 -39 -122 -48q77 -12 122 -51q38 -41 38 -112v-121h-160v162q0 30 -24.5 55.5t-57.5 25.5 q-31 0 -55.5 -23t-24.5 -58v-162z" />
<glyph unicode="&#xf6;" horiz-adv-x="659" d="M497 0h-417v565h163v-485h162v485h159v-490h94v-232h-161v157z" />
<glyph unicode="&#x446;" horiz-adv-x="659" d="M497 0h-417v565h163v-485h162v485h159v-490h94v-232h-161v157z" />
<glyph unicode="&#xf7;" d="M405 565h160v-565h-160v258q-9 -32 -48 -58q-38 -23 -63 -23h-51q-65 0 -114 49t-49 114v225h163v-225q0 -34 23 -57q19 -17 57 -25q33 0 57.5 24.5t24.5 69.5v213z" />
<glyph unicode="&#x447;" d="M405 565h160v-565h-160v258q-9 -32 -48 -58q-38 -23 -63 -23h-51q-65 0 -114 49t-49 114v225h163v-225q0 -34 23 -57q19 -17 57 -25q33 0 57.5 24.5t24.5 69.5v213z" />
<glyph unicode="&#xf8;" horiz-adv-x="893" d="M243 80h162v485h160v-485h162v485h163v-566l-810 1v565h163v-485z" />
<glyph unicode="&#x448;" horiz-adv-x="893" d="M243 80h162v485h160v-485h162v485h163v-566l-810 1v565h163v-485z" />
<glyph unicode="&#xf9;" horiz-adv-x="987" d="M830 -1l-750 1v565h163v-485h162v485h160v-485h162v485h162v-489h97v-225h-157z" />
<glyph unicode="&#x449;" horiz-adv-x="987" d="M830 -1l-750 1v565h163v-485h162v485h160v-485h162v485h162v-489h97v-225h-157z" />
<glyph unicode="&#xfa;" horiz-adv-x="621" d="M418 244l-29 4l-26 -3v-181l23 -3q17 0 44 9q20 9 30.5 27.5t10.5 55.5q0 66 -53 91zM57 567l306 -2v-239h77q27 0 42 -5q21 -3 45 -18q44 -18 67 -59q24 -39 24 -82q0 -66 -49 -114t-114 -48h-257v486h-141v81z" />
<glyph unicode="&#x44a;" horiz-adv-x="621" d="M418 244l-29 4l-26 -3v-181l23 -3q17 0 44 9q20 9 30.5 27.5t10.5 55.5q0 66 -53 91zM57 567l306 -2v-239h77q27 0 42 -5q21 -3 45 -18q44 -18 67 -59q24 -39 24 -82q0 -66 -49 -114t-114 -48h-257v486h-141v81z" />
<glyph unicode="&#xfb;" horiz-adv-x="747" d="M300 244l-30 4l-26 -3v-181l25 -4q22 0 42 10q41 18 41 83q0 69 -52 91zM321 326q27 0 42 -5q21 -3 45 -18q60 -30 78 -69q13 -39 13 -72q0 -66 -49 -114t-114 -48h-256v565h164v-239h77zM744 0h-163v565h163v-565z" />
<glyph unicode="&#x44b;" horiz-adv-x="747" d="M300 244l-30 4l-26 -3v-181l25 -4q22 0 42 10q41 18 41 83q0 69 -52 91zM321 326q27 0 42 -5q21 -3 45 -18q60 -30 78 -69q13 -39 13 -72q0 -66 -49 -114t-114 -48h-256v565h164v-239h77zM744 0h-163v565h163v-565z" />
<glyph unicode="&#xfc;" horiz-adv-x="501" d="M300 244l-30 4l-26 -3v-181l23 -3q17 0 44 9q20 9 30.5 27.5t10.5 55.5q0 66 -52 91zM321 326q27 0 42 -5q21 -3 45 -18q47 -20 67 -56q24 -42 24 -85q0 -66 -49 -114t-114 -48h-256v565h164v-239h77z" />
<glyph unicode="&#x44c;" horiz-adv-x="501" d="M300 244l-30 4l-26 -3v-181l23 -3q17 0 44 9q20 9 30.5 27.5t10.5 55.5q0 66 -52 91zM321 326q27 0 42 -5q21 -3 45 -18q47 -20 67 -56q24 -42 24 -85q0 -66 -49 -114t-114 -48h-256v565h164v-239h77z" />
<glyph unicode="&#xfd;" horiz-adv-x="516" d="M350 162v94h-130v80h130v69q0 27 -24 56q-3 6 -20 13l-28 9l-26 3q-43 0 -72 -28q-23 -25 -23 -56h-82q0 62 48 112.5t112 50.5h115q66 0 113.5 -47t47.5 -113v-243q0 -66 -45.5 -114t-115.5 -48h-115q-65 0 -112 44q-48 51 -48 116h82q0 -30 23 -59q27 -21 72 -21 q44 0 74 24q24 26 24 58z" />
<glyph unicode="&#x44d;" horiz-adv-x="516" d="M350 162v94h-130v80h130v69q0 27 -24 56q-3 6 -20 13l-28 9l-26 3q-43 0 -72 -28q-23 -25 -23 -56h-82q0 62 48 112.5t112 50.5h115q66 0 113.5 -47t47.5 -113v-243q0 -66 -45.5 -114t-115.5 -48h-115q-65 0 -112 44q-48 51 -48 116h82q0 -30 23 -59q27 -21 72 -21 q44 0 74 24q24 26 24 58z" />
<glyph unicode="&#xfe;" horiz-adv-x="841" d="M539 461q-23 -23 -23 -56v-243q0 -34 23 -58q27 -24 57 -24q28 0 58 24q24 26 24 58v243q0 30 -24.5 55.5t-57.5 25.5q-31 0 -57 -25zM243 565v-231h110v71q0 63 48.5 111.5t114.5 48.5h162q66 0 113.5 -47t47.5 -113v-243q0 -66 -45.5 -114t-115.5 -48h-162 q-60 0 -111.5 48t-51.5 114v91h-110v-253h-163v565h163z" />
<glyph unicode="&#x44e;" horiz-adv-x="841" d="M539 461q-23 -23 -23 -56v-243q0 -34 23 -58q27 -24 57 -24q28 0 58 24q24 26 24 58v243q0 30 -24.5 55.5t-57.5 25.5q-31 0 -57 -25zM243 565v-231h110v71q0 63 48.5 111.5t114.5 48.5h162q66 0 113.5 -47t47.5 -113v-243q0 -66 -45.5 -114t-115.5 -48h-162 q-60 0 -111.5 48t-51.5 114v91h-110v-253h-163v565h163z" />
<glyph unicode="&#xff;" horiz-adv-x="496" d="M306 264l-132 -264h-151l161 284q-46 30 -77 69q-17 34 -17 75l5 34l10 27q6 15 31 37q42 39 116 39h248v-565h-164v264h-30zM336 326v173l-29 3l-29 -3q-48 -18 -48 -86q0 -63 46 -82q16 -5 32 -7h12q11 0 16 2z" />
<glyph unicode="&#x44f;" horiz-adv-x="496" d="M306 264l-132 -264h-151l161 284q-46 30 -77 69q-17 34 -17 75l5 34l10 27q6 15 31 37q42 39 116 39h248v-565h-164v264h-30zM336 326v173l-29 3l-29 -3q-48 -18 -48 -86q0 -63 46 -82q16 -5 32 -7h12q11 0 16 2z" />
<glyph unicode="&#x11d;" horiz-adv-x="638" d="M250 162h-129v81h178l48 80h-226v82h275l49 81h82l-49 -81h128v-82h-176l-49 -80h225v-81h-274l-48 -82h-82z" />
<glyph unicode="&#x11e;" horiz-adv-x="994" d="M666 221l-101 88l-99 -88q-65 -59 -142 -59q-85 0 -144 59q-59 64 -59 143q0 77 60 143q61 58 143 58q75 0 142 -58l99 -87l101 87q67 58 142 58q82 0 142.5 -59t60.5 -142q0 -81 -57.5 -141.5t-145.5 -60.5q-79 0 -142 59zM723 449l-99 -84l99 -86q39 -36 85 -36 q48 0 84.5 34.5t36.5 86.5q0 47 -36.5 84.5t-84.5 37.5q-42 0 -85 -37zM410 279l96 85l-96 85q-43 37 -87 37q-48 0 -84.5 -36.5t-36.5 -85.5q0 -47 34.5 -84t86.5 -37q45 0 87 36z" />
<glyph unicode="&#x11f;" horiz-adv-x="426" d="M405 0h-325v80h325v-80zM323 121l-243 243l243 242v-114l-128 -128l128 -129v-114z" />
<glyph unicode="&#x120;" horiz-adv-x="426" d="M405 80v-80h-325v80h325zM162 606l243 -242l-243 -243v114l128 129l-128 128v114z" />
<glyph unicode="&#x121;" d="M294 486h161l1 20l1 20q0 53 -40 87q-18 15 -44.5 25t-47.5 10h-80v79h16q195 0 264.5 -79t69.5 -217q0 -61 -10 -108l-33 -161q-12 -66 -69.5 -114t-124.5 -48h-162q-54 0 -93 36q-18 17 -30 40q-10 27 -10 54l3 32l33 161q12 63 71 115q65 48 124 48zM359 405 q-77 0 -98 -82l-32 -161l-2 -16q0 -36 17 -49q15 -17 50 -17q81 0 96 82l33 161l1 16q0 66 -65 66z" />
<glyph unicode="&#x122;" horiz-adv-x="638" d="M648 -80h-568v80l281 353l-281 295v79h568v-79h-401l281 -295l-281 -353h401v-80z" />
<glyph unicode="&#x123;" horiz-adv-x="709" d="M323 -80h-161v728h-82v79h647v-79h-79v-728h-162v728h-163v-728z" />
<glyph unicode="&#x124;" horiz-adv-x="781" d="M243 0v486q-81 0 -81 -81h-82q18 160 163 160h484q81 0 81 83h82q-17 -146 -163 -162v-486h-162v486h-160v-486h-162z" />
<glyph unicode="&#x125;" horiz-adv-x="994" d="M405 0h-82l242 727h83zM298 162h-136v413h-82v73l149 79h69v-565zM782 486q-58 0 -68 -64h-66q0 77 42 110t92 33h133q58 0 97 -37t39 -88v-32q0 -66 -131 -169l-9 -8q-129 -105 -129 -147v-4h269v-80h-403v80q0 44 129 151l10 8q128 104 128 169v14q0 64 -66 64h-67z " />
<glyph unicode="&#x126;" horiz-adv-x="851" d="M80 323v82h163l121 -325l284 728h242v-81h-163l-282 -727h-161l-122 323h-82z" />
<glyph unicode="&#x127;" d="M243 486q-69 0 -81 -81h-82q18 160 163 160q48 0 100 -46l10 -11l25 -16q12 -6 27 -6q69 0 81 79h79q-15 -160 -160 -160q-47 0 -102 46l-9 12q-29 23 -51 23zM243 243q-69 0 -81 -81h-82q20 161 163 161q47 0 100 -47l10 -10q28 -23 52 -23q69 0 81 80h79 q-17 -161 -160 -161q-49 0 -102 47l-9 11q-29 23 -51 23z" />
<glyph unicode="&#x128;" horiz-adv-x="638" d="M648 0h-568v162l243 565h82l243 -565v-162zM162 162h324l-163 378z" />
<glyph unicode="&#x141;" horiz-adv-x="994" d="M323 243l-80 80l322 325l325 -325l-82 -80l-243 243zM80 648v79h325v-79h-325zM727 648v79h324v-79h-324z" />
<glyph unicode="&#x142;" horiz-adv-x="994" d="M323 243h-243l485 484l486 -484h-243v-243h-485v243zM849 323l-284 283l-281 -283h121v-243h322v243h122z" />
<glyph unicode="&#x152;" horiz-adv-x="496" d="M486 0h-406v323l-80 -39v80l80 41v322h163v-241l80 41v-82l-80 -40v-325h243v-80z" />
<glyph unicode="&#x153;" d="M157 648h-77v79h41q86 0 169 -33l33 33h82l-64 -64q145 -118 145 -340v-161q0 -66 -48 -114t-115 -48h-161q-66 0 -114 48t-48 114v161q0 62 48 115q53 48 114 48h161q-9 73 -47 114l-33 -35h-81l66 68q-33 15 -71 15zM185 381q-9 -10 -16 -26t-7 -32v-161q0 -34 23 -58 q27 -24 58 -24q30 0 57 24q8 10 16 25q7 18 7 33v161q0 34 -23 58q-24 21 -57 24q-28 0 -58 -24z" />
<glyph unicode="&#x160;" horiz-adv-x="994" d="M323 -243v243h485v-243h-485zM323 243h-243l485 484l486 -484h-243v-163h-485v163zM727 -80h-322v-82h322v82zM565 606l-120 -120h241zM849 323l-81 82h-404l-80 -82h121v-161h322v161h122z" />
<glyph unicode="&#x161;" horiz-adv-x="781" d="M80 364h82q0 -68 24 -122t72 -92q91 -70 187 -70q112 0 199 84q40 40 61.5 92t21.5 108q0 95 -69 187q-36 43 -91 70t-122 27v79q48 0 83 -7q16 -3 35.5 -9t39.5 -16q67 -30 116 -91q89 -112 89 -240q0 -150 -105.5 -257t-257.5 -107q-126 0 -242 89q-53 44 -83.5 112 t-39.5 163zM253 613l220 -221l-57 -57l-221 220l-115 -113v285h287z" />
<glyph unicode="&#x178;" horiz-adv-x="570" d="M321 725q68 0 80 80h81q-17 -161 -161 -161q-141 0 -163 161h81q11 -80 82 -80zM80 -80h82q0 -82 81 -82h80q32 0 58 23q24 24 24 59v160q-9 -80 -82 -80h-80q-60 0 -111.5 48t-51.5 114v403h163v-403q0 -34 23 -58q27 -24 57 -24q28 0 58 24q24 26 24 58v403h160v-645 q0 -66 -48.5 -114.5t-111.5 -48.5h-162q-141 0 -163 163z" />
<glyph unicode="&#x17d;" horiz-adv-x="922" d="M686 727h294l-242 -484h-454v-163l-204 204l204 202v-163h402l163 325h-163v79z" />
<glyph unicode="&#x17e;" d="M565 -162h-485v82h-80v80h162v-80h324v80h162v-80h-83v-82z" />
<glyph unicode="&#x192;" horiz-adv-x="426" d="M323 727h82v-79h-8q-30 0 -52 -22q-22 -19 -22 -61v-79h82v-81h-82v-405q0 -67 -45.5 -114.5t-115.5 -47.5h-82v82h9q27 0 50 20t23 60v405h-82v81h82v79q0 68 47 114q45 48 114 48z" />
<glyph unicode="&#x2c6;" horiz-adv-x="659" d="M497 0h-417v565h163v-485h162v485h159v-490h94v-232h-161v157z" />
<glyph unicode="&#x2dc;" d="M405 565h160v-565h-160v258q-9 -32 -48 -58q-38 -23 -63 -23h-51q-65 0 -114 49t-49 114v225h163v-225q0 -34 23 -57q19 -17 57 -25q33 0 57.5 24.5t24.5 69.5v213z" />
<glyph unicode="&#x2013;" horiz-adv-x="426" d="M405 243h-325v80h325v-80z" />
<glyph unicode="&#x2014;" horiz-adv-x="709" d="M727 243h-647v80h647v-80z" />
<glyph unicode="&#x2018;" horiz-adv-x="283" d="M243 565v-160h-163v160q0 144 163 162v-79q-81 0 -81 -83h81z" />
<glyph unicode="&#x2019;" horiz-adv-x="283" d="M80 565v162h163v-162q0 -144 -163 -160v81q82 0 82 79h-82z" />
<glyph unicode="&#x201a;" horiz-adv-x="501" d="M336 0h-256v565h248q72 0 117 -39q22 -20 30 -44l6 -25l5 -35l-3 -33l-13 -34l-20 -29l-42 -26q39 -18 53 -32q12 -9 25 -34.5t13 -71.5q0 -66 -49 -114t-114 -48zM244 326l28 -2q18 0 32 7q46 18 46 82q0 63 -48 86l-19 4h-17l-22 -4v-173zM300 244l-30 4l-26 -3v-181 l25 -4q22 0 42 10q41 18 41 83q0 69 -52 91z" />
<glyph unicode="&#x201c;" horiz-adv-x="496" d="M243 565v-160h-163v160q0 144 163 162v-79q-81 0 -81 -83h81zM486 565v-160h-163v160q0 146 163 162v-79q-81 0 -81 -83h81z" />
<glyph unicode="&#x201d;" horiz-adv-x="496" d="M80 565v162h163v-162q0 -144 -163 -160v81q82 0 82 79h-82zM323 565v162h163v-162q0 -141 -163 -160v81q82 0 82 79h-82z" />
<glyph unicode="&#x201e;" horiz-adv-x="505" d="M251 484v-484h-163v565h413v-81h-250z" />
<glyph unicode="&#x2020;" horiz-adv-x="355" d="M80 565v83h82v79h81v-79h80v-83h-80v-242h-81v242h-82z" />
<glyph unicode="&#x2021;" d="M405 323v82q0 30 -24.5 55.5t-57.5 25.5h-67q-66 0 -80 -81h-83q21 160 163 160h149q66 0 113 -45.5t47 -114.5v-405h-160v80q-9 -80 -82 -80h-80q-60 0 -111.5 48t-51.5 114q0 62 48.5 111.5t114.5 49.5h162zM405 243h-82q-31 0 -57 -23q-9 -10 -16 -26t-7 -32 q0 -34 23 -58q27 -24 57 -24q28 0 58 24q24 26 24 58v81z" />
<glyph unicode="&#x2022;" horiz-adv-x="496" d="M140 221q-60 60 -60 143q0 78 60 143q61 58 144 58q76 0 139 -60t63 -141q0 -78 -59.5 -140t-142.5 -62q-85 0 -144 59z" />
<glyph unicode="&#x2026;" horiz-adv-x="994" d="M243 0h-163v162h163v-162zM565 0h-160v162h160v-162zM890 0h-163v162h163v-162z" />
<glyph unicode="&#x2030;" horiz-adv-x="745" d="M581 -1h-335l-1 -156h-158v232h93v215q0 111 82 192q34 35 81 62q42 21 97 21h210v-490h96v-232h-165v156zM488 80v404h-65q-33 0 -58 -25q-23 -20 -23 -55v-324h146z" />
<glyph unicode="&#x2039;" horiz-adv-x="811" d="M644 314q-40 40 -40 92q0 51 39 90t92 39q47 0 91 -39q38 -36 38 -90q0 -52 -40 -91t-89 -39q-54 0 -91 38zM689 450q-19 -19 -19 -44q0 -24 19 -47q22 -19 46 -19q26 0 45 21t19 45t-19 44q-17 20 -45 20q-27 0 -46 -20zM860 1h-231v64h231v-64zM860 129h-231v65h231 v-65zM727 643h-166l4 -645h-37l-366 432v-430h-82v727h39l364 -440v438h244v-82z" />
<glyph unicode="&#x203a;" horiz-adv-x="496" d="M486 0h-406v727h406v-79h-243v-243h162v-82h-162v-243h243v-80zM486 803h-161v82h161v-82zM247 799h-161v82h161v-82z" />
<glyph unicode="&#x2122;" horiz-adv-x="781" d="M243 405h-81v243h-82v79h243v-79h-80v-243zM486 405h-81v322h40l161 -162l162 162h40v-322h-81v160l-121 -120l-120 120v-160z" />
<glyph unicode="&#x2215;" horiz-adv-x="355" d="M80 565v83h82v79h81v-79h80v-83h-80v-160h80v-82h-80v-80h-81v80h-82v82h82v160h-82z" />
<glyph unicode="&#xe000;" horiz-adv-x="565" d="M0 565h565v-565h-565v565z" />
</font>
</defs>
</svg>
